HIERARCHY
ROOT hip
{
  OFFSET 0 0 0
  CHANNELS 6 Xposition Yposition Zposition Zrotation Yrotation Xrotation
  JOINT abdomen
  {
    OFFSET 0 20.6881 -0.73152
    CHANNELS 3 Zrotation Xrotation Yrotation
    JOINT chest
    {
      OFFSET 0 11.7043 -0.48768
      CHANNELS 3 Zrotation Xrotation Yrotation
      JOINT neck
      {
        OFFSET 0 22.1894 -2.19456
        CHANNELS 3 Zrotation Xrotation Yrotation
        JOINT head
        {
          OFFSET -0.24384 7.07133 1.2192
          CHANNELS 3 Zrotation Xrotation Yrotation
          JOINT leftEye
          {
            OFFSET 4.14528 8.04674 8.04672
            CHANNELS 3 Zrotation Xrotation Yrotation
            End Site
            {
              OFFSET 1 0 0
            }
          }
          JOINT rightEye
          {
            OFFSET -3.6576 8.04674 8.04672
            CHANNELS 3 Zrotation Xrotation Yrotation
            End Site
            {
              OFFSET 1 0 0
            }
          }
        }
      }
      JOINT rCollar
      {
        OFFSET -2.68224 19.2634 -4.8768
        CHANNELS 3 Zrotation Xrotation Yrotation
        JOINT rShldr
        {
          OFFSET -8.77824 -1.95073 1.46304
          CHANNELS 3 Zrotation Xrotation Yrotation
          JOINT rForeArm
          {
            OFFSET -28.1742 -1.7115 0.48768
            CHANNELS 3 Zrotation Xrotation Yrotation
            JOINT rHand
            {
              OFFSET -22.5879 0.773209 7.07136
              CHANNELS 3 Zrotation Xrotation Yrotation
              JOINT rThumb1
              {
                OFFSET -1.2192 -0.487915 3.41376
                CHANNELS 3 Zrotation Xrotation Yrotation
                JOINT rThumb2
                {
                  OFFSET -3.37035 -0.52449 3.41376
                  CHANNELS 3 Zrotation Xrotation Yrotation
                  End Site
                  {
                    OFFSET -1.78271 -1.18214 1.43049
                  }
                }
              }
              JOINT rIndex1
              {
                OFFSET -7.75947 0.938293 5.60832
                CHANNELS 3 Zrotation Xrotation Yrotation
                JOINT rIndex2
                {
                  OFFSET -2.54057 -0.884171 1.56538
                  CHANNELS 3 Zrotation Xrotation Yrotation
                  End Site
                  {
                    OFFSET -1.62519 -0.234802 1.16502
                  }
                }
              }
              JOINT rMid1
              {
                OFFSET -8.24714 1.18213 3.41376
                CHANNELS 3 Zrotation Xrotation Yrotation
                JOINT rMid2
                {
                  OFFSET -3.10165 -0.590103 1.0647
                  CHANNELS 3 Zrotation Xrotation Yrotation
                  End Site
                  {
                    OFFSET -2.48547 -0.328903 0.83742
                  }
                }
              }
              JOINT rRing1
              {
                OFFSET -8.82822 0.546677 1.51678
                CHANNELS 3 Zrotation Xrotation Yrotation
                JOINT rRing2
                {
                  OFFSET -2.60934 -0.819778 -0.0198488
                  CHANNELS 3 Zrotation Xrotation Yrotation
                  End Site
                  {
                    OFFSET -2.33842 -0.294052 0.168128
                  }
                }
              }
              JOINT rPinky1
              {
                OFFSET -8.27202 -0.0477905 -0.4584
                CHANNELS 3 Zrotation Xrotation Yrotation
                JOINT rPinky2
                {
                  OFFSET -1.82734 -0.647385 -0.700984
                  CHANNELS 3 Zrotation Xrotation Yrotation
                  End Site
                  {
                    OFFSET -1.69225 -0.51767 -0.607171
                  }
                }
              }
            }
          }
        }
      }
      JOINT lCollar
      {
        OFFSET 2.68224 19.2634 -4.8768
        CHANNELS 3 Zrotation Xrotation Yrotation
        JOINT lShldr
        {
          OFFSET 8.77824 -1.95073 1.46304
          CHANNELS 3 Zrotation Xrotation Yrotation
          JOINT lForeArm
          {
            OFFSET 28.1742 -1.7115 0.48768
            CHANNELS 3 Zrotation Xrotation Yrotation
            JOINT lHand
            {
              OFFSET 22.5879 0.773209 7.07136
              CHANNELS 3 Zrotation Xrotation Yrotation
              JOINT lThumb1
              {
                OFFSET 1.2192 -0.487915 3.41376
                CHANNELS 3 Zrotation Xrotation Yrotation
                JOINT lThumb2
                {
                  OFFSET 3.37035 -0.52449 3.41376
                  CHANNELS 3 Zrotation Xrotation Yrotation
                  End Site
                  {
                    OFFSET 1.78271 -1.18214 1.43049
                  }
                }
              }
              JOINT lIndex1
              {
                OFFSET 7.75947 0.938293 5.60832
                CHANNELS 3 Zrotation Xrotation Yrotation
                JOINT lIndex2
                {
                  OFFSET 2.54057 -0.884171 1.56538
                  CHANNELS 3 Zrotation Xrotation Yrotation
                  End Site
                  {
                    OFFSET 1.62519 -0.234802 1.16502
                  }
                }
              }
              JOINT lMid1
              {
                OFFSET 8.24714 1.18213 3.41376
                CHANNELS 3 Zrotation Xrotation Yrotation
                JOINT lMid2
                {
                  OFFSET 3.10165 -0.590103 1.0647
                  CHANNELS 3 Zrotation Xrotation Yrotation
                  End Site
                  {
                    OFFSET 2.48547 -0.328903 0.83742
                  }
                }
              }
              JOINT lRing1
              {
                OFFSET 8.82822 0.546677 1.51678
                CHANNELS 3 Zrotation Xrotation Yrotation
                JOINT lRing2
                {
                  OFFSET 2.60934 -0.819778 -0.0198488
                  CHANNELS 3 Zrotation Xrotation Yrotation
                  End Site
                  {
                    OFFSET 2.33842 -0.294052 0.168128
                  }
                }
              }
              JOINT lPinky1
              {
                OFFSET 8.27202 -0.0477905 -0.4584
                CHANNELS 3 Zrotation Xrotation Yrotation
                JOINT lPinky2
                {
                  OFFSET 1.82734 -0.647385 -0.700984
                  CHANNELS 3 Zrotation Xrotation Yrotation
                  End Site
                  {
                    OFFSET 1.69225 -0.51767 -0.607171
                  }
                }
              }
            }
          }
        }
      }
    }
  }
  JOINT rButtock
  {
    OFFSET -8.77824 4.35084 1.2192
    CHANNELS 3 Zrotation Xrotation Yrotation
    JOINT rThigh
    {
      OFFSET 0 -1.70687 -2.19456
      CHANNELS 3 Zrotation Xrotation Yrotation
      JOINT rShin
      {
        OFFSET 0 -36.8199 0.73152
        CHANNELS 3 Zrotation Xrotation Yrotation
        JOINT rFoot
        {
          OFFSET 0.73152 -45.1104 -5.12064
          CHANNELS 3 Zrotation Xrotation Yrotation
          End Site
          {
            OFFSET -1.1221 -3.69964 12.103
          }
        }
      }
    }
  }
  JOINT lButtock
  {
    OFFSET 8.77824 4.35084 1.2192
    CHANNELS 3 Zrotation Xrotation Yrotation
    JOINT lThigh
    {
      OFFSET 0 -1.70687 -2.19456
      CHANNELS 3 Zrotation Xrotation Yrotation
      JOINT lShin
      {
        OFFSET 0 -36.8199 0.73152
        CHANNELS 3 Zrotation Xrotation Yrotation
        JOINT lFoot
        {
          OFFSET -0.73152 -45.1104 -5.12064
          CHANNELS 3 Zrotation Xrotation Yrotation
          End Site
          {
            OFFSET 1.1221 -3.69964 12.103
          }
        }
      }
    }
  }
}
MOTION
Frames:	4
Frame Time:	0.00833333
-0.781038 83.8589 54.8351 -7.9063 -3.4027 -0.4371 9.33887 9.43917 5.44589 -2.9924 -5.04324 1.56269 -1.19264 -0.548786 -3.18943 0.416338 -3.60148e-06 -5.94948 -0.0 0.0 0.0 -0.0 0.0 0.0 -4.49119e-13 5.77091e-14 -4.85671e-14 73.6269 17.3279 13.7706 -13.7948 -6.79049 25.1416 -0.000152208 -0.387984 -0.0545278 3.58209e-09 -4.72582e-09 9.69134e-10 6.1874e-09 -8.15875e-09 1.66989e-09 3.5821e-09 -4.72583e-09 9.69127e-10 7.73091 5.47488 0.417314 3.5821e-09 -4.72583e-09 9.69141e-10 2.90554 0.965183 0.102902 3.5821e-09 -4.72583e-09 9.6914e-10 10.2786 0.731801 0.0259123 3.58208e-09 -4.72582e-09 9.69143e-10 2.22167 -0.733487 -0.20892 -4.49185e-13 5.77099e-14 -4.87776e-14 -81.9584 22.0385 4.47413 10.603 -4.51696 -18.9357 0.0110306 -2.96195 0.416659 4.14241e-09 2.54903e-09 1.71341e-09 7.15363e-09 4.40661e-09 2.96514e-09 4.1424e-09 2.54903e-09 1.71341e-09 -7.73091 5.47488 -0.417314 4.14241e-09 2.54903e-09 1.7134e-09 -2.90554 0.965183 -0.102902 4.14241e-09 2.54903e-09 1.71341e-09 -10.2786 0.731801 -0.0259123 4.14242e-09 2.54903e-09 1.7134e-09 -2.22167 -0.733487 0.20892 -2.03217e-16 0.0 -3.88251e-19 13.4213 3.25176 6.63755 -0.129911 19.9314 0.22719 -2.30282 -13.1222 -6.12072 2.03217e-16 0.0 3.88251e-19 7.89616 -32.9765 -3.68943 0.143526 27.1703 -0.0115147 1.00121 -2.02782 5.74451
-0.761195 83.828 55.7475 -8.0402 -3.6032 -0.3699 9.28439 9.27997 5.64425 -3.10253 -4.85763 1.61119 -1.17704 -0.556491 -3.18288 0.451565 -0.135061 -5.94034 -0.0 0.0 0.0 -0.0 0.0 0.0 -5.44907e-13 3.89116e-14 -1.20408e-13 73.5551 17.213 14.022 -13.9317 -6.90019 25.4155 -0.000359057 -0.585409 -0.0822758 4.62223e-09 -6.77963e-09 1.65385e-09 7.98416e-09 -1.17068e-08 2.85439e-09 4.62224e-09 -6.77965e-09 1.65385e-09 7.73091 5.47488 0.417314 4.62224e-09 -6.77964e-09 1.65386e-09 2.90554 0.965183 0.102902 4.62225e-09 -6.77964e-09 1.65386e-09 10.2786 0.731801 0.0259123 4.62222e-09 -6.77963e-09 1.65386e-09 2.22167 -0.733487 -0.20892 -5.45006e-13 3.89123e-14 -1.20619e-13 -81.9661 21.8261 4.45401 10.4064 -4.39313 -18.564 0.0109621 -2.90183 0.408199 5.5565e-09 3.20701e-09 1.62267e-09 9.59795e-09 5.54572e-09 2.80797e-09 5.55649e-09 3.20701e-09 1.62267e-09 -7.73091 5.47488 -0.417314 5.55649e-09 3.20701e-09 1.62267e-09 -2.90554 0.965183 -0.102902 5.55649e-09 3.20701e-09 1.62267e-09 -10.2786 0.731801 -0.0259123 5.5565e-09 3.20701e-09 1.62266e-09 -2.22167 -0.733487 0.20892 -2.03217e-16 0.0 -3.88251e-19 13.1584 3.95134 6.61203 -0.134801 19.505 0.188004 -2.16282 -13.1579 -5.69052 2.03217e-16 0.0 3.88251e-19 7.64871 -32.5591 -5.0101 0.107101 24.5139 0.0760832 1.05979 -2.4907 6.21754
-0.685116 83.8261 56.6734 -8.0466 -3.8138 -0.2281 9.17082 9.12689 5.82771 -3.1929 -4.69136 1.65503 -1.15259 -0.567741 -3.17417 0.486477 -0.229521 -5.92956 -0.0 0.0 0.0 -0.0 0.0 0.0 -6.01703e-13 1.70578e-14 -1.87456e-13 73.5209 17.0606 14.2351 -14.0522 -6.99718 25.6582 -0.000649187 -0.750546 -0.105488 5.35422e-09 -8.42368e-09 2.21155e-09 9.24868e-09 -1.45475e-08 3.81955e-09 5.35424e-09 -8.42369e-09 2.21155e-09 7.73091 5.47488 0.417314 5.35423e-09 -8.42369e-09 2.21155e-09 2.90554 0.965183 0.102902 5.35424e-09 -8.42369e-09 2.21156e-09 10.2786 0.731801 0.0259123 5.35421e-09 -8.42367e-09 2.21155e-09 2.22167 -0.733487 -0.20892 -6.01835e-13 1.70583e-14 -1.87661e-13 -81.9698 21.5713 4.43614 10.1892 -4.25759 -18.1558 0.010149 -2.78296 0.39145 6.57736e-09 3.65479e-09 1.38202e-09 1.1363e-08 6.32139e-09 2.39153e-09 6.57735e-09 3.65479e-09 1.38202e-09 -7.73091 5.47488 -0.417314 6.57736e-09 3.65479e-09 1.38203e-09 -2.90554 0.965183 -0.102902 6.57736e-09 3.65479e-09 1.38203e-09 -10.2786 0.731801 -0.0259123 6.57737e-09 3.65479e-09 1.38202e-09 -2.22167 -0.733487 0.20892 -2.03217e-16 0.0 -3.88251e-19 12.8522 4.58386 6.58903 -0.140598 19.2311 0.150265 -2.01534 -13.203 -5.23749 2.03217e-16 0.0 3.88251e-19 7.39223 -32.1212 -6.18487 0.0795706 22.0691 0.154653 1.1241 -2.97458 6.65751
-0.5541 83.7651 57.6116 -7.8877 -3.8896 -0.0709 9.01013 9.02488 5.95348 -3.2337 -4.5969 1.6834 -1.13089 -0.602977 -3.16958 0.506257 -0.227068 -5.92627 -0.0 0.0 0.0 -0.0 0.0 0.0 -5.86331e-13 7.9475e-16 -2.12998e-13 73.4762 16.9398 14.4407 -14.1301 -7.05987 25.8162 -0.000857409 -0.836083 -0.117512 5.33326e-09 -8.73283e-09 2.38135e-09 9.21258e-09 -1.50825e-08 4.11407e-09 5.33328e-09 -8.73284e-09 2.38135e-09 7.73091 5.47488 0.417314 5.33328e-09 -8.73284e-09 2.38136e-09 2.90554 0.965183 0.102902 5.33328e-09 -8.73284e-09 2.38136e-09 10.2786 0.731801 0.0259123 5.33325e-09 -8.73282e-09 2.38136e-09 2.22167 -0.733487 -0.20892 -5.86487e-13 7.95139e-16 -2.13197e-13 -82.0111 21.2605 4.49488 9.97856 -4.12829 -17.7612 0.00768553 -2.50229 0.3519 6.62325e-09 3.60792e-09 1.04573e-09 1.1443e-08 6.24103e-09 1.8099e-09 6.62325e-09 3.60792e-09 1.04573e-09 -7.73091 5.47488 -0.417314 6.62325e-09 3.60792e-09 1.04573e-09 -2.90554 0.965183 -0.102902 6.62325e-09 3.60792e-09 1.04573e-09 -10.2786 0.731801 -0.0259123 6.62326e-09 3.60792e-09 1.04573e-09 -2.22167 -0.733487 0.20892 -2.03217e-16 0.0 -3.88251e-19 12.5617 5.14765 6.61884 -0.147026 19.1372 0.117007 -1.887 -13.2174 -4.85677 2.03217e-16 0.0 3.88251e-19 7.1744 -31.741 -6.94711 0.0654429 20.0438 0.216319 1.17756 -3.46052 6.91424
